<?xml version="1.0" standalone="no"?>
<!DOCTYPE svg PUBLIC "-//W3C//DTD SVG 20010904//EN"
 "http://www.w3.org/TR/2001/REC-SVG-20010904/DTD/svg10.dtd">
<svg version="1.0" xmlns="http://www.w3.org/2000/svg"
 width="512.000000pt" height="512.000000pt" viewBox="0 0 512.000000 512.000000"
 preserveAspectRatio="xMidYMid meet">
<metadata>
Created by potrace 1.14, written by Peter Selinger 2001-2017
</metadata>
<g transform="translate(0.000000,512.000000) scale(0.100000,-0.100000)"
fill="#000000" stroke="none">
<path d="M305 5105 c-45 -21 -71 -46 -94 -90 -21 -40 -21 -41 -21 -1233 l0
-1194 29 -29 c29 -28 30 -32 29 -122 -1 -87 -3 -93 -30 -119 l-28 -26 0 -1064
c0 -705 4 -1076 11 -1100 13 -48 67 -101 118 -116 28 -9 526 -12 1950 -12
2061 0 1946 -3 2002 51 57 57 54 -14 59 1109 l5 1035 98 198 c53 110 97 200
97 202 0 1 45 96 100 210 55 113 100 208 100 210 0 1 40 86 89 188 121 251
130 286 91 391 -35 92 -84 137 -225 206 -169 82 -195 90 -282 85 l-73 -3 0
546 c0 528 -1 547 -20 588 -12 24 -39 54 -62 70 l-41 29 -1936 2 c-1644 2
-1941 0 -1966 -12z"/>
</g>
</svg>
